<svg width="30" height="31" viewBox="0 0 30 31" fill="none" xmlns="http://www.w3.org/2000/svg">
<path d="M27.5928 20.1916C25.7561 20.1916 23.9527 19.9043 22.2437 19.3395C21.4062 19.0539 20.3768 19.3159 19.8657 19.8409L16.4925 22.3873C12.5805 20.2991 10.1709 17.8902 8.11117 14.0076L10.5827 10.7223C11.2248 10.081 11.4551 9.1443 11.1791 8.26539C10.612 6.54742 10.3238 4.74484 10.3238 2.90734C10.3239 1.57992 9.24398 0.5 7.91664 0.5H2.40727C1.07992 0.5 0 1.57992 0 2.90727C0 18.1221 12.378 30.5 27.5928 30.5C28.9202 30.5 30.0001 29.4201 30.0001 28.0927V22.5988C30 21.2715 28.9201 20.1916 27.5928 20.1916Z" fill="#FBD71C"/>
</svg>
