<svg width="30" height="31" viewBox="0 0 22 31" fill="none" xmlns="http://www.w3.org/2000/svg">
<path d="M11.0001 0.5C5.0092 0.5 0.135254 5.37394 0.135254 11.3648C0.135254 18.7996 9.85824 29.7144 10.2722 30.1754C10.661 30.6085 11.3399 30.6078 11.728 30.1754C12.142 29.7144 21.865 18.7996 21.865 11.3648C21.8649 5.37394 16.991 0.5 11.0001 0.5ZM11.0001 16.8312C7.98594 16.8312 5.53379 14.379 5.53379 11.3648C5.53379 8.35062 7.986 5.89848 11.0001 5.89848C14.0142 5.89848 16.4664 8.35068 16.4664 11.3649C16.4664 14.379 14.0142 16.8312 11.0001 16.8312Z" fill="#FBD71C"/>
</svg>
