<svg width="270" height="311" viewBox="0 0 270 311" fill="none" xmlns="http://www.w3.org/2000/svg">
<path opacity="0.1" d="M212.754 181.888C213.081 181.065 213.112 180.152 212.84 179.308C212.568 178.464 212.012 177.742 211.266 177.267C210.521 176.792 209.634 176.594 208.759 176.708C207.884 176.821 207.076 177.239 206.475 177.888C206.481 177.001 206.179 176.141 205.62 175.454C205.061 174.768 204.282 174.3 203.416 174.13C202.55 173.961 201.653 174.101 200.879 174.527C200.106 174.953 199.504 175.637 199.179 176.461C198.278 178.739 199.118 181.264 200.244 183.322C200.469 183.727 202.626 188.517 202.196 188.812C205.451 186.568 211.061 186.17 212.754 181.888Z" stroke="black" stroke-miterlimit="10"/>
<path opacity="0.1" d="M207.376 227.565C207.703 226.741 207.734 225.828 207.462 224.984C207.191 224.14 206.634 223.418 205.889 222.944C205.143 222.469 204.256 222.271 203.381 222.384C202.506 222.498 201.698 222.915 201.097 223.565C201.103 222.678 200.801 221.817 200.242 221.131C199.684 220.445 198.904 219.977 198.038 219.807C197.173 219.638 196.275 219.778 195.501 220.204C194.728 220.629 194.126 221.313 193.801 222.138C192.9 224.409 193.747 226.941 194.873 228.999C195.098 229.404 197.248 234.186 196.825 234.488C200.073 232.245 205.683 231.84 207.376 227.565Z" stroke="black" stroke-miterlimit="10"/>
<path opacity="0.1" d="M38.5596 235.744C38.1284 234.98 37.4476 234.389 36.6327 234.072C35.8178 233.755 34.9189 233.731 34.0883 234.004C33.2577 234.277 32.5466 234.83 32.0754 235.57C31.6042 236.31 31.4019 237.19 31.5028 238.063C30.8266 237.494 29.9736 237.18 29.0915 237.176C28.2094 237.172 27.3537 237.478 26.6725 238.042C25.9913 238.605 25.5276 239.39 25.3615 240.261C25.1955 241.132 25.3376 242.034 25.7633 242.811C26.9371 244.959 29.4077 245.913 31.6803 246.338C32.1375 246.42 37.181 247.8 37.1401 248.314C37.4949 244.383 40.7572 239.785 38.5596 235.744Z" stroke="black" stroke-miterlimit="10"/>
<path opacity="0.1" d="M76.5459 210.267C76.8733 209.444 76.9039 208.531 76.6323 207.687C76.3607 206.843 75.8041 206.121 75.0588 205.646C74.3135 205.171 73.4265 204.973 72.5514 205.087C71.6763 205.2 70.8682 205.618 70.2672 206.267C70.2749 205.38 69.9737 204.518 69.4157 203.83C68.8577 203.143 68.078 202.673 67.2119 202.503C66.3457 202.333 65.4476 202.473 64.6732 202.898C63.8987 203.324 63.2967 204.008 62.9715 204.833C62.0707 207.111 62.9101 209.636 64.0362 211.695C64.2614 212.099 66.418 216.882 65.9949 217.184C69.2571 214.947 74.867 214.542 76.5459 210.267Z" stroke="black" stroke-miterlimit="10"/>
<path opacity="0.1" d="M254.76 205.265C253.946 205.01 253.194 204.587 252.55 204.025C251.907 203.463 251.385 202.774 251.02 201.999C250.82 201.919 250.607 201.879 250.392 201.882C250.178 201.885 249.966 201.93 249.769 202.016C249.571 202.101 249.393 202.225 249.243 202.38C249.094 202.535 248.976 202.718 248.897 202.919C248.754 203.415 248.721 203.936 248.801 204.446C248.881 204.956 249.073 205.442 249.361 205.869C249.457 206.048 250.385 208.113 250.201 208.236C251.607 207.283 254.029 207.111 254.76 205.265Z" stroke="black" stroke-miterlimit="10"/>
<path opacity="0.1" d="M81.9306 53.1058C82.2581 52.282 82.2886 51.3691 82.0171 50.5251C81.7455 49.681 81.1888 48.9591 80.4435 48.4843C79.6982 48.0094 78.8112 47.8116 77.9361 47.9251C77.061 48.0385 76.253 48.4561 75.6519 49.1055C75.658 48.2189 75.3557 47.3579 74.7971 46.6717C74.2385 45.9855 73.4589 45.5172 72.5932 45.3478C71.7275 45.1785 70.8301 45.3187 70.0564 45.7443C69.2827 46.1699 68.6813 46.854 68.3563 47.6783C67.4554 49.9564 68.3017 52.4814 69.4278 54.5398C69.653 54.9446 71.8028 59.7339 71.3796 60.029C74.635 57.8196 80.2381 57.3873 81.9306 53.1058Z" stroke="black" stroke-miterlimit="10"/>
<path opacity="0.1" d="M231.747 35.0396C232.269 33.7483 232.323 32.3134 231.9 30.9859C231.477 29.6585 230.602 28.5229 229.43 27.778C228.258 27.0331 226.863 26.7261 225.489 26.9109C224.114 27.0957 222.848 27.7604 221.912 28.7888C221.923 27.4023 221.451 26.0557 220.579 24.9821C219.706 23.9085 218.487 23.1755 217.134 22.91C215.78 22.6446 214.377 22.8633 213.167 23.5284C211.957 24.1935 211.016 25.2631 210.508 26.5519C209.102 30.113 210.419 34.0584 212.18 37.2352C212.528 37.8733 215.893 45.3455 215.231 45.7983C220.343 42.347 229.105 41.7226 231.747 35.0396Z" stroke="black" stroke-miterlimit="10"/>
<path opacity="0.1" d="M206.932 10.009C207.155 9.44253 207.175 8.81552 206.987 8.23626C206.799 7.657 206.416 7.16188 205.904 6.83642C205.391 6.51096 204.782 6.37561 204.181 6.45376C203.58 6.5319 203.025 6.81862 202.612 7.2644C202.615 6.65519 202.407 6.06391 202.023 5.5927C201.639 5.12149 201.103 4.79994 200.508 4.6836C199.914 4.56725 199.297 4.66341 198.765 4.95547C198.233 5.24753 197.82 5.71715 197.596 6.28321C196.975 7.84762 197.555 9.58357 198.326 10.9833C198.483 11.2646 199.964 14.5581 199.691 14.7571C201.909 13.2201 205.765 12.9525 206.932 10.009Z" stroke="black" stroke-miterlimit="10"/>
<path opacity="0.1" d="M263.673 138.325C264.285 136.767 264.337 135.043 263.82 133.451C263.303 131.859 262.25 130.498 260.841 129.603C259.433 128.709 257.758 128.336 256.106 128.551C254.453 128.765 252.927 129.553 251.791 130.777C251.808 129.098 251.24 127.466 250.187 126.163C249.133 124.861 247.659 123.969 246.021 123.644C244.382 123.318 242.682 123.578 241.215 124.38C239.747 125.181 238.604 126.474 237.985 128.033C236.278 132.342 237.875 137.124 240.032 140.967C240.462 141.742 244.536 150.799 243.731 151.341C249.894 147.176 260.472 146.422 263.673 138.325Z" stroke="black" stroke-miterlimit="10"/>
<path opacity="0.1" d="M58.5697 144.83C57.4694 143.57 55.9663 142.736 54.3198 142.472C52.6733 142.207 50.9866 142.529 49.5508 143.381C48.115 144.234 47.0201 145.563 46.4551 147.14C45.8901 148.717 45.8903 150.443 46.4558 152.02C44.9749 151.24 43.2688 151.006 41.6341 151.359C39.9993 151.712 38.5392 152.629 37.5074 153.952C36.4756 155.275 35.9374 156.919 35.9862 158.6C36.0351 160.28 36.6679 161.89 37.7748 163.15C40.8118 166.635 45.7733 167.39 50.148 167.232C51.0284 167.232 60.9037 167.671 61.0197 168.639C60.1189 161.229 64.2615 151.382 58.5697 144.83Z" stroke="black" stroke-miterlimit="10"/>
<path d="M139.954 310.87C158.665 310.87 173.832 306.48 173.832 301.065C173.832 295.65 158.665 291.26 139.954 291.26C121.244 291.26 106.077 295.65 106.077 301.065C106.077 306.48 121.244 310.87 139.954 310.87Z" fill="#92E3A9"/>
<path opacity="0.5" d="M139.954 310.87C158.665 310.87 173.832 306.48 173.832 301.065C173.832 295.65 158.665 291.26 139.954 291.26C121.244 291.26 106.077 295.65 106.077 301.065C106.077 306.48 121.244 310.87 139.954 310.87Z" fill="white"/>
<path d="M129.478 213.053C129.478 213.053 124.169 219.448 120.456 217.856C116.744 216.264 118.6 191.721 121.78 191.186C124.96 190.65 136.638 198.651 136.638 204.257C136.638 209.863 130.27 214.123 130.27 214.123L129.478 213.053Z" fill="#263238" stroke="#263238" stroke-linecap="round" stroke-linejoin="round"/>
<path d="M150.703 222.687V180.084H129.547V222.687C119.746 225.272 111.218 231.357 105.556 239.804C99.894 248.252 97.486 258.483 98.7822 268.586C100.078 278.689 104.99 287.971 112.599 294.698C120.208 301.424 129.993 305.134 140.125 305.134C150.257 305.134 160.042 301.424 167.651 294.698C175.26 287.971 180.172 278.689 181.468 268.586C182.764 258.483 180.356 248.252 174.694 239.804C169.032 231.357 160.504 225.272 150.703 222.687Z" fill="white" stroke="#263238" stroke-linecap="round" stroke-linejoin="round"/>
<path d="M150.703 188.455V180.084H129.547V187.254C131.826 189.752 136.003 191.433 140.794 191.433C144.327 191.517 147.796 190.475 150.703 188.455Z" fill="#263238" stroke="#263238" stroke-linecap="round" stroke-linejoin="round"/>
<path d="M140.773 189.957C148.006 189.957 153.87 186.139 153.87 181.429C153.87 176.718 148.006 172.9 140.773 172.9C133.54 172.9 127.677 176.718 127.677 181.429C127.677 186.139 133.54 189.957 140.773 189.957Z" fill="white" stroke="#263238" stroke-linecap="round" stroke-linejoin="round"/>
<path d="M140.773 183.274C144.169 183.274 146.922 181.791 146.922 179.96C146.922 178.13 144.169 176.646 140.773 176.646C137.377 176.646 134.624 178.13 134.624 179.96C134.624 181.791 137.377 183.274 140.773 183.274Z" fill="white" stroke="#263238" stroke-linecap="round" stroke-linejoin="round"/>
<path d="M102.937 255.574C101.663 261.188 101.663 267.019 102.938 272.634C104.213 278.248 106.73 283.502 110.301 288.004C113.873 292.506 118.407 296.142 123.568 298.64C128.729 301.139 134.383 302.436 140.111 302.436C145.839 302.436 151.494 301.139 156.655 298.64C161.815 296.142 166.35 292.506 169.922 288.004C173.493 283.502 176.01 278.248 177.285 272.634C178.559 267.019 178.56 261.188 177.286 255.574H102.937Z" fill="#E74D4D" stroke="#263238" stroke-linecap="round" stroke-linejoin="round"/>
<path d="M140.2 264.734C160.682 264.734 177.286 260.682 177.286 255.683C177.286 250.685 160.682 246.633 140.2 246.633C119.718 246.633 103.115 250.685 103.115 255.683C103.115 260.682 119.718 264.734 140.2 264.734Z" fill="#E74D4D" stroke="#263238" stroke-linecap="round" stroke-linejoin="round"/>
<path d="M132.87 204.943V222.337" stroke="#263238" stroke-linecap="round" stroke-linejoin="round"/>
<path d="M132.87 191.899V199.975" stroke="#263238" stroke-linecap="round" stroke-linejoin="round"/>
<path d="M117.576 237.995C113.812 241.289 110.805 245.366 108.763 249.945C106.722 254.523 105.694 259.492 105.751 264.509C105.808 269.527 106.949 274.471 109.094 279.001C111.24 283.531 114.339 287.538 118.177 290.745" stroke="#263238" stroke-linecap="round" stroke-linejoin="round"/>
<path d="M131.826 230.516C128.839 231.266 125.967 232.42 123.288 233.946" stroke="#263238" stroke-linecap="round" stroke-linejoin="round"/>
<path d="M160.524 248.012L122.19 258.654C121.925 258.709 121.65 258.66 121.42 258.518C121.19 258.377 121.022 258.152 120.95 257.891C120.879 257.63 120.908 257.351 121.033 257.11C121.158 256.87 121.369 256.686 121.623 256.596L159.958 245.954C160.222 245.9 160.497 245.948 160.727 246.09C160.957 246.232 161.125 246.456 161.197 246.717C161.269 246.978 161.239 247.258 161.114 247.498C160.99 247.738 160.778 247.922 160.524 248.012Z" fill="#263238"/>
<path d="M161.636 242.983L161.541 243.195L159.555 246.674L167.724 244.403L169.853 240.705L161.636 242.983Z" fill="#263238"/>
<path d="M171.669 247.319L167.997 245.343L159.807 247.607C161.1 248.128 162.33 248.796 163.472 249.597L171.669 247.319Z" fill="#263238"/>
<path d="M115.979 259.265L123.391 253.515L122.353 257.502L125.274 260.377L115.979 259.265Z" fill="#263238"/>
<path d="M158.443 255.972C158.874 254.06 158.628 252.058 157.747 250.31C156.866 248.562 155.404 247.179 153.616 246.399C151.828 245.619 149.825 245.492 147.953 246.04C146.082 246.588 144.459 247.775 143.367 249.398C143.077 247.461 142.123 245.686 140.67 244.38C139.217 243.075 137.356 242.321 135.408 242.248C133.461 242.176 131.55 242.79 130.005 243.984C128.459 245.178 127.378 246.877 126.946 248.788C125.759 254.071 128.455 259.299 131.608 263.354C132.242 264.164 138.576 273.873 137.75 274.648C144.111 268.706 156.211 265.9 158.443 255.972Z" fill="#263238" stroke="#263238" stroke-linecap="round" stroke-linejoin="round"/>
<path d="M110.226 267.176L122.039 264.596L122.326 265.921L111.707 268.233L112.437 271.629L111.243 271.89L110.226 267.176Z" fill="#263238"/>
<path d="M120.347 270.408C121.985 269.55 123.466 269.811 124.326 271.458C125.186 273.105 124.551 274.491 122.913 275.348L117.371 278.258C115.747 279.108 114.253 278.854 113.386 277.194C112.519 275.534 113.181 274.168 114.805 273.317L120.347 270.408ZM115.358 274.525C114.375 275.04 113.993 275.753 114.471 276.618C114.949 277.482 115.706 277.599 116.682 277.084L122.353 274.113C123.316 273.605 123.718 272.899 123.234 272.02C122.749 271.142 121.992 271.046 121.023 271.554L115.358 274.525Z" fill="#263238"/>
<path d="M126.175 274.696L120.033 283.507L128.905 277.517L129.772 278.408L119.535 285.27L118.17 283.843L125.227 273.702L126.175 274.696Z" fill="#263238"/>
<path d="M130.789 284.989L130.195 286.045L127.622 284.591L125.506 288.358L128.666 290.148L128.066 291.219L123.732 288.762L129.67 278.175L134.003 280.632L133.403 281.702L130.243 279.911L128.195 283.527L130.789 284.989Z" fill="#263238"/>
<path d="M138.705 281.668C140.589 281.915 141.251 283.136 141.012 284.968L140.828 286.409C140.582 288.323 139.559 289.208 137.654 288.955L136.474 288.804L135.86 293.559L134.495 293.38L136.057 281.325L138.705 281.668ZM137.811 287.754C138.808 287.884 139.347 287.479 139.497 286.327L139.702 284.721C139.845 283.623 139.524 283.019 138.549 282.889L137.265 282.724L136.631 287.596L137.811 287.754Z" fill="#263238"/>
<path d="M141.585 284.934C141.312 283.095 142.043 281.777 143.879 281.503C145.714 281.229 146.8 282.285 147.073 284.124L147.98 290.347C148.246 292.166 147.516 293.504 145.667 293.778C143.817 294.053 142.759 292.975 142.493 291.157L141.585 284.934ZM143.817 291.027C143.981 292.131 144.534 292.701 145.489 292.557C146.445 292.413 146.854 291.713 146.656 290.608L145.728 284.248C145.571 283.17 145.046 282.58 144.056 282.724C143.066 282.868 142.746 283.561 142.889 284.659L143.817 291.027Z" fill="#263238"/>
<path d="M153.242 291.514L148.786 281.551L146.738 282.47L146.233 281.345L151.529 278.951L152.034 280.076L149.987 280.995L154.443 290.958L153.242 291.514Z" fill="#263238"/>
<path d="M152.587 277.956L159.555 287.898L158.443 288.673L151.481 278.758L152.587 277.956Z" fill="#263238"/>
<path d="M155.126 279.884C153.761 278.607 153.549 277.139 154.819 275.767C156.088 274.395 157.603 274.559 158.913 275.842L163.452 280.165C164.783 281.434 165.028 282.91 163.745 284.282C162.462 285.654 160.968 285.462 159.65 284.2L155.126 279.884ZM160.633 283.314C161.432 284.083 162.217 284.186 162.885 283.479C163.554 282.772 163.404 281.99 162.606 281.222L157.965 276.803C157.173 276.048 156.388 275.925 155.713 276.638C155.037 277.352 155.201 278.141 155.992 278.896L160.633 283.314Z" fill="#263238"/>
<path d="M168.147 278.264L167.601 279.355L156.805 273.866L157.576 272.329L166.632 273.784L158.838 269.839L159.377 268.768L170.174 274.257L169.539 275.513L159.418 273.852L168.147 278.264Z" fill="#263238"/>
<path d="M130.004 209.849C130.004 209.849 118.334 201.581 112.765 201.046C107.196 200.51 107.032 218.508 107.721 222.385C108.581 227.243 116.061 226.893 121.514 222.385C124.182 220.182 130.27 214.151 130.27 214.151L130.004 209.849Z" fill="#FA2828" stroke="#263238" stroke-linecap="round" stroke-linejoin="round"/>
<path d="M128.68 209.314C128.68 209.314 114.348 210.384 112.499 207.715C110.649 205.046 110.908 201.581 113.556 202.116C116.204 202.651 128.68 209.314 128.68 209.314Z" fill="#263238" stroke="#263238" stroke-linecap="round" stroke-linejoin="round"/>
<path d="M129.39 209.046C129.39 209.046 141.415 213.074 151.031 208.243L150.703 222.652C150.703 222.652 133.819 224.361 129.41 218.721L129.39 209.046Z" fill="#FA2828" stroke="#263238" stroke-linecap="round" stroke-linejoin="round"/>
<path d="M0 137.865L61.245 105.122C61.245 105.122 63.2446 104.745 65.0804 107.675C70.1239 115.758 78.5524 121.343 87.1584 125.151C93.7988 128.088 100.712 131.361 105.06 137.461C112.567 147.952 110.362 147.54 111.338 149.537C112.314 151.533 116.047 152.027 117.747 147.821C119.446 143.615 116.962 137.701 113.263 132.232C109.564 126.763 102.139 121.94 101.34 120.211C100.542 118.482 104.985 110.488 108.561 111.854C112.137 113.219 115.993 117.802 115.993 117.802L120.04 123.792C122.858 127.957 128.352 139.43 134.727 143.821C141.101 148.212 143.885 147.835 144.745 146.868C145.605 145.9 144.288 144.514 142.534 143.046C140.78 141.577 134.167 130.119 131.519 125.062C128.871 120.005 123.596 103.833 123.596 103.833C123.596 103.833 133.287 109.768 135.648 111.579C138.009 113.391 149.686 118.344 156.648 119.676C163.609 121.007 164.455 118.9 165.649 116.183C166.844 113.466 159.807 113.706 154.047 111.929C148.287 110.152 133.682 98.062 133.682 98.062C133.682 98.062 139.258 99.5853 141.19 99.0432C143.121 98.5012 154.696 103.894 160.947 104.182C167.199 104.471 168.639 100.443 168.113 99.6607C167.588 98.8785 160.974 98.0689 152.962 95.1802C147.212 92.9927 141.593 90.4726 136.133 87.6326C136.133 87.6326 145.919 84.7508 150.956 84.3528C155.992 83.9549 158.954 86.1094 162.612 87.0357C166.27 87.962 167.997 87.1592 167.997 87.1592L168.68 85.931C169.362 84.7028 157.849 78.8774 151.242 78.0609C143.896 77.022 136.423 77.3593 129.199 79.0558C120.702 81.0525 107.946 81.8004 102.657 82.3562C97.3682 82.9119 72.4511 77.9237 63.579 82.0748C57.9896 84.6891 24.2277 94.7136 0.0136497 101.774" fill="white"/>
<path d="M0 137.865L61.245 105.122C61.245 105.122 63.2446 104.745 65.0804 107.675C70.1239 115.758 78.5524 121.343 87.1584 125.151C93.7988 128.088 100.712 131.361 105.06 137.461C112.567 147.952 110.362 147.54 111.338 149.537C112.314 151.533 116.047 152.027 117.747 147.821C119.446 143.615 116.962 137.701 113.263 132.232C109.564 126.763 102.139 121.94 101.34 120.211C100.542 118.482 104.985 110.488 108.561 111.854C112.137 113.219 115.993 117.802 115.993 117.802L120.04 123.792C122.858 127.957 128.352 139.43 134.727 143.821C141.101 148.212 143.885 147.835 144.745 146.868C145.605 145.9 144.288 144.514 142.534 143.046C140.78 141.577 134.167 130.119 131.519 125.062C128.871 120.005 123.596 103.833 123.596 103.833C123.596 103.833 133.287 109.768 135.648 111.579C138.009 113.391 149.686 118.344 156.648 119.676C163.609 121.007 164.455 118.9 165.649 116.183C166.844 113.466 159.807 113.706 154.047 111.929C148.287 110.152 133.682 98.062 133.682 98.062C133.682 98.062 139.258 99.5853 141.19 99.0432C143.121 98.5012 154.696 103.894 160.947 104.182C167.199 104.471 168.639 100.443 168.113 99.6607C167.588 98.8785 160.974 98.0689 152.962 95.1802C147.212 92.9927 141.593 90.4726 136.133 87.6326C136.133 87.6326 145.919 84.7508 150.956 84.3528C155.992 83.9549 158.954 86.1094 162.612 87.0357C166.27 87.962 167.997 87.1592 167.997 87.1592L168.68 85.931C169.362 84.7028 157.849 78.8774 151.242 78.0609C143.896 77.022 136.423 77.3593 129.199 79.0558C120.702 81.0525 107.946 81.8004 102.657 82.3562C97.3682 82.9119 72.4511 77.9237 63.579 82.0748C57.9896 84.6891 24.2277 94.7136 0.0136497 101.774" stroke="#263238" stroke-linecap="round" stroke-linejoin="round"/>
<path d="M123.596 103.853C123.596 103.853 120.559 94.892 117.672 92.2984" stroke="#263238" stroke-linecap="round" stroke-linejoin="round"/>
<path d="M133.696 98.0826C133.696 98.0826 124.926 88.4766 122.661 87.365" stroke="#263238" stroke-linecap="round" stroke-linejoin="round"/>
<path d="M136.119 87.6738L129.827 82.8433" stroke="#263238" stroke-linecap="round" stroke-linejoin="round"/>
<path d="M127.26 134.462C127.26 134.462 119.03 136.28 114.58 143.135L128.728 161.249C130.888 161.386 133.02 160.7 134.699 159.328C138.282 156.625 138.644 154.086 138.644 154.086C138.644 154.086 132.297 143.588 127.26 134.462Z" fill="#969696" stroke="#263238" stroke-linecap="round" stroke-linejoin="round"/>
<path d="M123.568 148.027C123.708 148.234 123.784 148.477 123.786 148.727C123.788 148.977 123.716 149.222 123.58 149.431C123.443 149.64 123.248 149.803 123.019 149.901C122.79 149.998 122.537 150.025 122.293 149.977C122.049 149.93 121.824 149.811 121.648 149.636C121.471 149.46 121.35 149.235 121.3 148.991C121.25 148.746 121.274 148.492 121.368 148.26C121.462 148.029 121.622 147.831 121.828 147.691C121.964 147.598 122.117 147.532 122.278 147.499C122.44 147.465 122.606 147.464 122.768 147.495C122.929 147.526 123.083 147.589 123.221 147.681C123.358 147.772 123.476 147.89 123.568 148.027Z" stroke="#263238" stroke-linecap="round" stroke-linejoin="round"/>
<path d="M125.5 140.843C125.593 140.962 125.661 141.1 125.699 141.247C125.737 141.393 125.745 141.546 125.722 141.696C125.698 141.846 125.645 141.99 125.564 142.118C125.483 142.246 125.377 142.356 125.252 142.441C125.127 142.526 124.986 142.584 124.837 142.612C124.689 142.64 124.536 142.637 124.389 142.603C124.242 142.569 124.104 142.504 123.983 142.414C123.861 142.324 123.76 142.21 123.684 142.078C123.545 141.836 123.503 141.55 123.565 141.278C123.627 141.006 123.79 140.768 124.02 140.611C124.25 140.455 124.531 140.391 124.805 140.435C125.08 140.478 125.328 140.624 125.5 140.843Z" stroke="#263238" stroke-linecap="round" stroke-linejoin="round"/>
<path d="M131.934 151.437C132.026 151.577 132.06 151.747 132.028 151.912C131.996 152.076 131.901 152.221 131.764 152.316C131.627 152.408 131.459 152.443 131.297 152.412C131.135 152.381 130.992 152.287 130.898 152.151C130.835 152.014 130.823 151.858 130.864 151.713C130.906 151.568 130.997 151.442 131.123 151.359C131.248 151.276 131.399 151.241 131.548 151.26C131.697 151.28 131.834 151.352 131.934 151.465V151.437Z" stroke="#263238" stroke-linecap="round" stroke-linejoin="round"/>
<path d="M128.844 145.749C128.908 145.834 128.955 145.932 128.981 146.036C129.007 146.14 129.011 146.248 128.994 146.354C128.977 146.46 128.939 146.561 128.881 146.652C128.824 146.742 128.749 146.82 128.66 146.88C128.572 146.941 128.473 146.982 128.368 147.002C128.263 147.023 128.155 147.021 128.051 146.998C127.947 146.975 127.848 146.931 127.762 146.868C127.675 146.806 127.602 146.726 127.547 146.634C127.444 146.461 127.41 146.255 127.453 146.058C127.496 145.861 127.613 145.688 127.779 145.575C127.945 145.461 128.148 145.416 128.346 145.449C128.544 145.481 128.722 145.589 128.844 145.749Z" stroke="#263238" stroke-linecap="round" stroke-linejoin="round"/>
<path d="M129.465 156.741C129.553 156.87 129.601 157.022 129.604 157.179C129.606 157.335 129.562 157.488 129.477 157.62C129.392 157.751 129.27 157.853 129.127 157.915C128.984 157.976 128.826 157.994 128.673 157.965C128.52 157.936 128.38 157.862 128.269 157.752C128.158 157.642 128.082 157.502 128.05 157.349C128.019 157.196 128.033 157.037 128.092 156.892C128.151 156.747 128.251 156.623 128.38 156.535C128.551 156.419 128.761 156.375 128.964 156.414C129.168 156.452 129.347 156.57 129.465 156.741Z" stroke="#263238" stroke-linecap="round" stroke-linejoin="round"/>
<path d="M127.083 125.748C126.334 124.441 125.153 123.438 123.746 122.914C122.339 122.39 120.794 122.378 119.378 122.878C117.963 123.379 116.766 124.363 115.996 125.657C115.225 126.952 114.93 128.477 115.16 129.968C113.987 129.038 112.529 128.548 111.036 128.582C109.543 128.615 108.109 129.17 106.978 130.152C105.848 131.133 105.093 132.479 104.842 133.96C104.592 135.44 104.862 136.961 105.606 138.263C107.653 141.866 111.925 143.396 115.809 144.02C116.587 144.15 125.206 146.291 125.145 147.169C125.616 140.486 130.987 132.534 127.083 125.748Z" fill="#FA2828" stroke="#263238" stroke-linecap="round" stroke-linejoin="round"/>
<path d="M108.868 138.908C110.153 138.908 111.195 137.338 111.195 135.402C111.195 133.466 110.153 131.896 108.868 131.896C107.582 131.896 106.541 133.466 106.541 135.402C106.541 137.338 107.582 138.908 108.868 138.908Z" fill="white"/>
<path d="M116.546 128.616C116.546 129.487 117.01 130.194 117.59 130.194C118.17 130.194 118.634 129.508 118.634 128.616C118.634 127.724 118.17 127.038 117.59 127.038C117.01 127.038 116.546 127.745 116.546 128.616Z" fill="white"/>
<path opacity="0.1" d="M205.833 76.3044C195.978 65.4633 180.582 62.3139 164.291 61.3738C156.832 60.9416 149.045 59.5007 143.285 54.7182C137.525 49.9358 134.665 40.9953 138.705 34.6416C139.008 34.1135 139.426 33.6608 139.927 33.3173C141.374 32.4391 143.223 33.283 144.643 34.2093C148.288 36.5873 151.547 39.5147 154.307 42.8891C156.354 45.4141 158.402 48.3782 161.582 49.133C166.107 50.2308 170.201 46.3404 173.054 42.6489C175.907 38.9575 179.285 34.7102 183.933 34.7377C188.867 34.7377 192.416 39.9043 193.016 44.8309C193.617 49.7574 192.184 54.6702 191.802 59.6173C196.013 55.0682 199.746 49.8603 201.356 43.836C202.967 37.8116 202.121 30.9501 198.108 26.2569C194.095 21.5637 186.506 19.862 181.428 23.4025C178.255 25.6119 175.252 29.7563 171.614 28.4663C169.533 27.7253 168.495 25.4541 167.444 23.4986C159.807 9.22678 140.282 3.42886 125.554 10.0227C110.826 16.6166 102.105 33.8868 104.077 49.977C104.759 55.6651 106.766 61.4013 110.847 65.4015C124.496 78.8019 144.377 73.0314 161.193 76.5582C176.037 79.6733 182.595 95.6125 179.115 109.452C175.115 125.377 165.035 139.732 153.303 150.916C147.584 156.405 135.962 163.561 135.143 172.454C134.187 182.931 141.224 182.122 141.224 182.122C141.224 182.122 141.858 176.482 153.051 169.634C171.328 158.457 197.016 157.283 209.014 136.898C219.565 118.969 220.404 92.3396 205.833 76.3044Z" fill="black"/>
<g opacity="0.15">
<path d="M194.675 141.749C209.689 127.69 212.651 101.266 205.997 84.5175C200.189 69.9163 179.429 62.9588 165.165 61.4287L164.291 61.3738C163.295 61.3121 162.285 61.2366 161.282 61.1337C160.599 61.1337 159.992 61.0925 159.391 61.0925C145.742 61.0925 120.443 63.7685 111.12 49.7094C108.264 45.3772 106.213 40.5603 105.066 35.4924C103.842 40.2142 103.507 45.1244 104.077 49.9701C104.759 55.6582 106.766 61.3944 110.847 65.3946C124.496 78.7951 144.377 73.0246 161.193 76.5514C165.133 77.3517 168.784 79.2107 171.758 81.9308C172.797 82.3448 173.786 82.8765 174.706 83.5157C186.356 91.8799 192.013 105.267 187.673 122.002C183.332 138.737 160.046 145.763 148.089 158.148C139.135 167.397 139.736 176.193 140.582 180.063C140.787 178.32 141.899 175.109 145.36 169.195C152.73 156.81 179.695 155.808 194.675 141.749Z" fill="black"/>
</g>
<path opacity="0.15" d="M145.073 56.0425C144.459 55.6308 143.858 55.1917 143.285 54.7182C137.525 49.9152 134.665 40.9953 138.705 34.6416C139.008 34.1135 139.426 33.6608 139.927 33.3173C141.374 32.4391 143.223 33.283 144.643 34.2093C148.288 36.5873 151.547 39.5147 154.307 42.8891C156.354 45.4141 158.402 48.3782 161.582 49.133C166.107 50.2308 170.201 46.3404 173.054 42.6489C175.907 38.9575 179.285 34.7102 183.933 34.7377C188.867 34.7377 192.416 39.9043 193.016 44.8309C193.617 49.7574 192.184 54.6702 191.802 59.6173C196.013 55.0682 199.746 49.8603 201.356 43.836C202.721 38.8408 202.353 33.2281 199.875 28.7408C197.145 27.8693 193.692 27.5331 189.358 27.9105C170.051 29.5847 172.051 44.3094 164.059 44.6456C156.067 44.9818 156.067 25.5639 145.749 20.212C135.43 14.86 112.458 18.874 124.114 37.2833C131.062 48.3233 139.449 53.5861 145.073 56.0425Z" fill="black"/>
<path d="M180.077 147.019C180.238 146.611 180.252 146.16 180.117 145.744C179.982 145.327 179.707 144.971 179.339 144.737C178.971 144.502 178.533 144.405 178.1 144.46C177.668 144.516 177.269 144.722 176.972 145.042C176.971 144.606 176.82 144.184 176.543 143.848C176.267 143.512 175.882 143.284 175.456 143.203C175.03 143.121 174.589 143.192 174.209 143.403C173.829 143.613 173.534 143.95 173.375 144.356C172.925 145.482 173.341 146.73 173.9 147.732C174.01 147.931 175.074 150.298 174.863 150.436C176.467 149.345 179.237 149.146 180.077 147.019Z" fill="#92E3A9"/>
<path d="M133.553 167.342C133.348 166.954 133.015 166.65 132.611 166.484C132.206 166.318 131.757 166.3 131.341 166.433C130.925 166.567 130.568 166.843 130.334 167.213C130.1 167.584 130.002 168.025 130.059 168.461C129.726 168.179 129.306 168.023 128.871 168.019C128.437 168.015 128.014 168.163 127.676 168.438C127.338 168.714 127.107 169.099 127.021 169.527C126.935 169.956 127 170.401 127.206 170.787C127.772 171.85 128.994 172.33 130.113 172.55C130.338 172.591 132.843 173.291 132.795 173.545C133 171.603 134.624 169.346 133.553 167.342Z" fill="#92E3A9"/>
<path d="M123.766 169.442C123.562 169.178 123.273 168.994 122.948 168.923C122.624 168.852 122.284 168.897 121.989 169.051C121.695 169.206 121.463 169.459 121.335 169.767C121.207 170.076 121.191 170.419 121.289 170.739C121.004 170.573 120.671 170.511 120.347 170.565C120.022 170.619 119.726 170.784 119.509 171.033C119.292 171.281 119.168 171.598 119.158 171.929C119.148 172.259 119.252 172.583 119.453 172.845C119.762 173.168 120.138 173.419 120.554 173.58C120.971 173.742 121.417 173.809 121.862 173.778C122.033 173.778 123.985 173.977 123.998 174.169C123.896 172.708 124.824 170.8 123.766 169.442Z" fill="#92E3A9"/>
<path d="M158.852 173.874C158.296 173.382 157.845 172.782 157.527 172.11C157.209 171.437 157.031 170.707 157.003 169.963C156.736 169.696 156.376 169.546 155.999 169.546C155.623 169.546 155.262 169.696 154.996 169.963C154.706 170.306 154.495 170.709 154.377 171.143C154.259 171.577 154.238 172.031 154.314 172.474C154.314 172.646 154.361 174.622 154.17 174.656C155.644 174.382 157.63 175.089 158.852 173.874Z" fill="#92E3A9"/>
<path d="M200.408 91.6466C200.244 91.2393 199.943 90.9028 199.558 90.696C199.172 90.4891 198.727 90.425 198.299 90.515C197.871 90.6049 197.489 90.8431 197.218 91.1879C196.947 91.5327 196.806 91.9622 196.818 92.4013C196.515 92.088 196.113 91.8904 195.681 91.8426C195.25 91.7947 194.815 91.8995 194.451 92.139C194.088 92.3784 193.819 92.7377 193.69 93.1549C193.562 93.5722 193.582 94.0214 193.747 94.4255C194.211 95.5439 195.371 96.1408 196.477 96.4839C196.695 96.5525 199.097 97.4994 199.043 97.7464C199.432 95.8252 201.274 93.7462 200.408 91.6466Z" fill="#92E3A9"/>
<path d="M132.427 31.403C132.728 31.0862 132.909 30.6733 132.939 30.236C132.969 29.7987 132.845 29.3648 132.589 29.0098C132.333 28.6548 131.962 28.4012 131.54 28.2931C131.117 28.1851 130.67 28.2293 130.277 28.4183C130.44 28.0122 130.457 27.5617 130.325 27.1445C130.193 26.7272 129.92 26.3694 129.554 26.1327C129.187 25.896 128.75 25.7954 128.318 25.8481C127.885 25.9009 127.485 26.1037 127.185 26.4216C126.825 26.8868 126.57 27.4261 126.441 28.0013C126.311 28.5765 126.309 29.1733 126.435 29.7494C126.435 29.9827 126.585 32.5694 126.332 32.6243C128.23 32.2127 130.871 33.0566 132.427 31.403Z" fill="#92E3A9"/>
<path d="M191.399 87.0768C190.874 87.3436 190.3 87.4989 189.713 87.5331C189.126 87.5674 188.539 87.4798 187.987 87.2758C187.849 87.333 187.724 87.4168 187.619 87.5226C187.513 87.6284 187.43 87.754 187.373 87.8923C187.315 88.0306 187.286 88.1788 187.286 88.3285C187.286 88.4782 187.315 88.6265 187.372 88.7648C187.542 89.079 187.777 89.3524 188.063 89.5657C188.348 89.779 188.676 89.9272 189.024 89.9998C189.154 90.041 190.607 90.6174 190.58 90.7683C190.805 89.6087 191.925 88.3531 191.399 87.0768Z" fill="#92E3A9"/>
<path d="M204.557 125.405C204.032 125.672 203.458 125.827 202.871 125.861C202.284 125.895 201.697 125.808 201.145 125.604C201.007 125.66 200.882 125.743 200.777 125.849C200.672 125.954 200.588 126.079 200.531 126.217C200.474 126.354 200.445 126.502 200.444 126.651C200.444 126.8 200.474 126.948 200.53 127.086C200.699 127.402 200.934 127.677 201.219 127.891C201.504 128.106 201.833 128.255 202.182 128.328C202.312 128.369 203.765 128.939 203.738 129.09C203.963 127.937 205.083 126.674 204.557 125.405Z" fill="#92E3A9"/>
<path d="M120.306 64.681C120.204 64.4372 120.021 64.2366 119.788 64.1138C119.555 63.9909 119.286 63.9535 119.029 64.0079C118.771 64.0623 118.541 64.2051 118.376 64.4118C118.212 64.6185 118.125 64.8762 118.129 65.1408C117.946 64.9509 117.703 64.831 117.442 64.8015C117.18 64.7721 116.917 64.8349 116.697 64.9793C116.476 65.1237 116.313 65.3407 116.234 65.5929C116.156 65.8452 116.167 66.1172 116.266 66.3621C116.434 66.6779 116.669 66.9528 116.954 67.1674C117.24 67.382 117.568 67.531 117.917 67.604C118.047 67.6452 119.501 68.2147 119.473 68.3656C119.712 67.2335 120.832 65.971 120.306 64.681Z" fill="#92E3A9"/>
<path d="M125.056 164.227C122.872 164.618 122.558 164.913 122.169 167.129C121.787 164.934 121.487 164.618 119.282 164.227C121.473 163.843 121.787 163.541 122.169 161.331C122.558 163.527 122.872 163.843 125.056 164.227Z" fill="#92E3A9"/>
<path d="M162.066 184.413C159.883 184.805 159.569 185.1 159.186 187.316C158.797 185.12 158.504 184.805 156.3 184.413C158.483 184.029 158.797 183.727 159.186 181.518C159.569 183.714 159.883 184.029 162.066 184.413Z" fill="#92E3A9"/>
<path d="M158.197 142.078C156.013 142.469 155.699 142.764 155.31 144.981C154.928 142.785 154.628 142.469 152.423 142.078C154.614 141.694 154.928 141.392 155.31 139.176C155.713 141.378 156.013 141.694 158.197 142.078Z" fill="#92E3A9"/>
<path d="M225.932 102.419C223.748 102.803 223.434 103.105 223.045 105.315C222.663 103.119 222.363 102.803 220.158 102.419C222.349 102.028 222.663 101.733 223.045 99.5167C223.434 101.733 223.748 102.049 225.932 102.419Z" fill="#92E3A9"/>
</svg>
