<svg width="167" height="81" viewBox="0 0 167 81" fill="none" xmlns="http://www.w3.org/2000/svg"  >
<g clip-path="url(#clip0_1_9)">
<path d="M32.7164 15.5818C34.121 15.9968 35.3726 16.5741 36.4891 17.3498C37.5876 18.1345 38.5511 19.0366 39.3434 20.128C40.1358 21.2194 40.7661 22.4281 41.2253 23.7992C41.6845 25.1703 41.9636 26.6045 42.0717 28.0928C42.1167 28.7332 42.0987 29.6262 41.9996 30.7718C41.9006 31.9173 41.6935 33.0448 41.3603 34.1453C41.0272 35.2457 40.568 36.1929 39.9917 36.9776C39.4245 37.7443 38.6861 38.0781 37.8037 37.9518C37.4255 37.8977 37.0474 37.7443 36.6512 37.4737C36.264 37.2121 35.8948 36.8784 35.5617 36.4815C35.2375 36.0936 34.9764 35.6697 34.7693 35.2367C34.5712 34.8038 34.4812 34.3888 34.4902 33.9919C34.5172 32.7742 34.7423 31.6197 35.1565 30.5463C35.5707 29.4729 35.7508 28.3002 35.7238 27.0555C35.6967 26.1895 35.5167 25.3146 35.1565 24.4216C34.7963 23.5105 34.184 22.9693 33.3016 22.7168C32.4643 22.4822 31.5638 22.5454 30.5734 22.8972C29.5829 23.258 28.6195 23.7631 27.7011 24.4306C26.7826 25.1161 25.9633 25.8828 25.2519 26.7849C24.5406 27.6869 24.1354 28.5979 24.0544 29.518C23.9734 30.4831 24.3065 31.6648 25.0538 33.0358C25.8192 34.4069 26.7826 35.823 27.9802 37.2933C29.1777 38.7546 30.5104 40.2609 32.005 41.7673C33.4907 43.2917 34.9044 44.7349 36.228 46.1782C37.5516 47.6033 38.6951 49.0195 39.6676 50.4627C40.64 51.9059 41.1983 53.3492 41.3423 54.8195C41.5134 56.5874 41.1442 57.9585 40.1988 58.9056C39.2624 59.8527 38.0378 60.4931 36.5251 60.7998C35.0034 61.1065 33.3467 61.1516 31.5638 60.9081C29.781 60.6735 28.1513 60.3127 26.7016 59.8798C25.432 59.4919 23.8473 58.8875 21.9384 57.9945C20.0295 57.1016 18.1927 55.974 16.4099 54.603C14.6451 53.2319 13.0963 51.6985 11.8178 50.0117C10.5392 48.334 9.80984 46.6201 9.75581 44.9514C9.71079 43.9863 10.0169 43.3909 10.6652 43.1835C11.2955 42.976 12.0879 43.1384 13.0153 43.6615C13.7717 44.0765 14.519 44.6357 15.2754 45.3212C16.0317 46.0068 16.734 46.6923 17.4183 47.3598C18.9941 48.9113 20.5248 50.0117 21.9834 50.6792C23.4331 51.3467 25.0629 51.9871 26.8817 52.5464C27.0168 52.5915 27.3859 52.6997 27.9712 52.8711C28.5565 53.0425 29.1687 53.1958 29.826 53.3131C30.4833 53.4394 31.0506 53.5115 31.5638 53.5206C32.0681 53.5386 32.3202 53.4123 32.3022 53.1597C31.4378 51.6714 30.4383 50.2823 29.2678 49.0195C28.0972 47.7477 26.8907 46.4848 25.6301 45.195C24.3695 43.9051 23.163 42.5881 21.9834 41.2081C20.8039 39.828 19.7684 38.2765 18.877 36.6078C17.9856 34.93 17.3553 33.0899 16.9591 31.1145C16.5539 29.1301 16.5179 26.9472 16.761 24.5839C16.9681 22.6717 17.6975 21.0571 18.877 19.704C20.0565 18.351 21.4252 17.3317 22.9559 16.565C24.4866 15.7983 26.0893 15.3654 27.8181 15.185C29.5469 14.9775 31.1497 15.1128 32.7074 15.5728L32.7164 15.5818Z" fill="#461F16"/>
<path d="M63.5015 58.2652C62.6101 58.5719 61.8178 58.5177 61.1605 58.1118C60.5032 57.7059 59.9629 57.0925 59.5487 56.2807C59.1345 55.4689 58.7924 54.5128 58.5312 53.4214C58.2791 52.3299 58.072 51.2204 57.937 50.111C57.8019 48.9925 57.7029 47.9461 57.6578 46.99C57.6128 46.0339 57.5588 45.2491 57.5048 44.6628C57.3787 45.1048 57.2527 45.8084 57.0996 46.7555C56.9465 47.7026 56.7394 48.767 56.4873 49.9125C56.2262 51.0671 55.92 52.2397 55.5509 53.4304C55.1907 54.612 54.7585 55.7034 54.2813 56.6957C53.8041 57.6879 53.2638 58.4907 52.6515 59.1131C52.0393 59.7445 51.3549 60.0782 50.5896 60.1143C49.9593 60.1414 49.338 60.0692 48.6987 59.8798C48.0594 59.6813 47.5192 59.3656 47.06 58.9056C46.8079 58.653 46.5827 58.184 46.3937 57.4714C46.2136 56.7588 46.0425 55.9109 45.9164 54.9007C45.7904 53.9084 45.7093 52.835 45.6553 51.7075C45.6103 50.58 45.5743 49.4796 45.5473 48.3971C45.5203 47.3328 45.4932 46.3766 45.4752 45.4926C45.4572 44.6267 45.4482 43.9682 45.4302 43.5263C45.3222 40.6849 45.1781 37.8526 44.953 35.0563C44.7279 32.2691 44.5658 29.4729 44.3857 26.7398C44.3587 26.2256 44.3407 25.6664 44.3407 25.035C44.3587 24.4216 44.4218 23.8533 44.5658 23.3482C44.7009 22.8341 44.926 22.4011 45.2321 22.0222C45.5383 21.6434 45.9885 21.4359 46.5647 21.3818C47.3571 21.3006 48.0504 21.5803 48.6537 22.2568C49.248 22.9243 49.7522 23.8443 50.1754 25.0079C50.5896 26.1625 50.9408 27.4884 51.2019 28.9678C51.463 30.4471 51.7061 31.9264 51.8862 33.3876C52.0663 34.8489 52.2103 36.2199 52.2914 37.4918C52.3724 38.7636 52.4715 39.7198 52.5525 40.3782C52.9577 38.8177 53.615 37.3835 54.5334 35.9944C55.4428 34.6144 56.6224 33.6763 58.081 33.1351C59.3056 32.675 60.3051 32.6029 61.1605 33.0268C62.0068 33.4327 62.7092 34.1724 63.2494 35.2277C63.7807 36.2921 64.1858 37.5549 64.447 39.0342C64.7081 40.5135 64.9242 42.0289 65.0773 43.5714C65.2303 45.1048 65.3564 46.566 65.4644 47.9642C65.5725 49.3442 65.7166 50.4988 65.8966 51.3918C65.9687 51.7256 66.0317 52.0593 66.0947 52.384C66.1578 52.7088 66.1938 53.0425 66.2298 53.3853C66.3378 54.4316 66.1578 55.4238 65.6715 56.3529C65.1943 57.273 64.474 57.9134 63.5015 58.2471V58.2652Z" fill="#461F16"/>
<path d="M74.4326 45.1499C74.5046 45.9707 74.5856 46.8637 74.6937 47.8559C74.7927 48.8301 74.8017 49.7952 74.7117 50.6973C74.6306 51.6173 74.3785 52.4381 73.9733 53.1778C73.5682 53.9174 72.9109 54.4316 71.9924 54.7383C71.146 55.0179 70.4707 54.9097 69.9845 54.3775C69.4983 53.8453 69.1111 53.1507 68.841 52.2577C68.5709 51.3647 68.3998 50.3996 68.2827 49.3713C68.1657 48.343 68.0846 47.4861 68.0216 46.8005C67.9676 46.2593 67.8685 45.4746 67.7155 44.4734C67.5804 43.4541 67.4363 42.3356 67.3103 41.1269C67.1842 39.9001 67.1032 38.6463 67.0582 37.3294C67.0131 36.0215 67.0852 34.7947 67.2563 33.6492C67.4273 32.5036 67.7155 31.5114 68.1477 30.6906C68.5799 29.8697 69.2102 29.3105 70.0295 29.0489C70.5338 28.8775 70.993 28.8956 71.3802 29.076C71.7673 29.2564 72.1185 29.536 72.4066 29.9148C72.6948 30.2757 72.9379 30.7267 73.118 31.2408C73.298 31.755 73.4061 32.2691 73.4691 32.7923C73.8563 37.7714 74.0544 40.279 74.4326 45.1499ZM69.2102 26.7939C68.3458 27.0825 67.5984 26.8931 66.9681 26.2076C66.3378 25.522 65.9777 24.7463 65.8786 23.8263C65.7796 22.8611 65.9777 21.8689 66.4639 20.8676C66.9501 19.8664 67.6614 19.1899 68.5799 18.8832C69.4263 18.6036 70.2186 18.784 70.975 19.4244C71.7313 20.0649 72.1455 20.8767 72.2265 21.8418C72.3076 22.807 72.0285 23.7992 71.4072 24.8275C70.7679 25.8558 70.0385 26.5143 69.2102 26.7939Z" fill="#461F16"/>
<path d="M76.5665 43.0482C76.4315 40.5767 76.6206 38.1232 77.1338 35.7419C77.647 33.3605 78.4664 31.2228 79.5829 29.3827C80.6994 27.5426 82.1311 26.0633 83.8419 24.9448C85.5707 23.8443 87.5156 23.3031 89.7036 23.267C89.7576 19.9205 89.7846 18.2428 89.8567 14.9775C89.8837 14.2649 89.8747 13.2998 89.8386 12.1001C89.7936 10.8824 89.8657 9.70072 90.0457 8.5281C90.2258 7.35548 90.577 6.35425 91.0722 5.48831C91.5855 4.62238 92.3958 4.13529 93.5394 4.00901C93.9445 3.96391 94.2957 4.00901 94.5658 4.16235C94.8359 4.3157 95.1511 4.48708 95.4122 4.70356C95.6193 4.87495 95.7904 5.47027 95.9435 6.48955C96.0785 7.50883 96.1956 8.75361 96.2766 10.2239C96.3576 11.7032 96.4027 13.3178 96.4297 15.0948C96.4477 16.8627 96.4567 18.5856 96.4567 20.2272C96.4567 21.8689 98.0864 39.6295 95.7904 43.842C91.8646 51.0671 85.2736 51.6263 83.2836 51.5542C82.3112 51.5271 79.9791 50.9408 78.9076 49.7682C78.1873 48.9744 77.656 47.9371 77.2509 46.7555C76.8457 45.5558 76.6116 44.311 76.5395 43.0301L76.5665 43.0482ZM87.5426 31.2138C86.9033 31.34 86.0569 32.2872 85.5797 33.0088C85.1205 33.7484 84.7333 34.5873 84.4092 35.5434C84.085 36.5086 82.9505 41.181 83.7428 43.1745C84.6613 45.4656 88.7041 42.6062 89.5325 41.2532C90.3789 39.9002 90.4419 37.7894 90.3519 35.1285C90.2799 33.2613 89.9377 30.7628 87.5426 31.2047V31.2138Z" fill="#461F16"/>
<path d="M128.899 46.99C127.98 46.6653 127.314 46.1241 126.945 45.1228C126.576 44.1216 126.386 42.976 126.341 41.6952C126.296 40.4143 126.368 39.1244 126.549 37.8436C126.729 36.5627 126.855 35.5795 126.927 34.903C127.206 32.0707 127.44 29.1933 127.584 26.3519C127.719 23.5106 127.944 20.6151 128.241 17.7557C128.367 16.5741 128.728 15.6901 129.34 15.1218C129.952 14.5536 130.898 14.3551 132.176 14.6077C133.14 14.7881 133.86 15.176 134.346 15.7352C134.832 16.2945 135.156 16.9529 135.31 17.7016C135.463 18.4503 135.508 19.2531 135.445 20.101C135.382 20.9488 135.337 21.7426 135.265 22.5003C136.786 21.8148 138.2 21.3548 139.496 21.0932C140.793 20.8316 142.324 21.021 144.08 21.7516C144.521 21.932 144.971 22.2658 145.412 22.7258C145.853 23.2039 146.223 23.718 146.511 24.2863C146.799 24.8546 147.024 25.4409 147.168 26.0452C147.303 26.6406 147.321 27.1998 147.213 27.723C147.105 28.2371 146.88 28.6611 146.529 29.0038C146.196 29.3556 145.79 29.5992 145.331 29.7705C144.872 29.9419 143.692 29.9419 143.17 29.6894C140.289 28.3093 137.696 29.6443 136.975 30.6094C135.517 32.4946 134.553 41.2261 133.716 43.5172C133.023 45.3573 131.681 47.9822 128.881 47.008L128.899 46.99Z" fill="#461F16"/>
<path d="M150.995 46.0609C150.761 46.8186 150.518 47.6665 150.283 48.5685C150.049 49.4886 149.725 50.3004 149.347 50.9949C148.96 51.7075 148.474 52.2217 147.843 52.5554C147.213 52.8892 146.421 52.8621 145.43 52.5013C144.512 52.1676 143.881 51.6263 143.575 50.8236C143.251 50.0298 143.116 49.1458 143.17 48.1897C143.215 47.2245 143.377 46.2323 143.656 45.2491C143.936 44.2659 144.17 43.418 144.35 42.7686C144.503 42.2364 144.701 41.4697 144.962 40.4684C145.214 39.4672 145.529 38.3577 145.898 37.1761C146.259 35.9944 146.691 34.8038 147.177 33.6221C147.663 32.4405 148.221 31.4032 148.834 30.5282C149.446 29.6623 150.112 29.0399 150.824 28.6611C151.535 28.2822 152.327 28.3093 153.174 28.7423C153.705 29.0038 154.11 29.3827 154.389 29.8698C154.668 30.3478 154.876 30.862 154.993 31.4032C155.11 31.9444 155.146 32.5217 155.101 33.108C155.056 33.6943 154.966 34.2265 154.813 34.6955C153.21 39.2868 152.39 41.614 150.986 46.0609H150.995ZM153.309 26.1715C152.399 25.7115 151.787 24.9448 151.481 23.8714C151.157 22.7799 151.13 21.8238 151.382 20.9669C151.643 20.0739 152.192 19.4064 152.994 18.9734C153.804 18.5405 154.677 18.5946 155.623 19.1087C156.487 19.5868 157.145 20.3896 157.586 21.5532C158.027 22.6988 158.099 23.7 157.838 24.5479C157.559 25.3958 156.965 25.9821 156.01 26.3158C155.047 26.6496 154.155 26.5955 153.291 26.1625L153.309 26.1715Z" fill="#461F16"/>
<path d="M124.09 26.6586C122.001 21.3457 114.231 24.4847 109.918 22.9603C110.395 22.3199 110.683 21.6344 110.737 20.9939C111.53 21.2826 112.214 21.3547 112.754 21.2014C114.492 20.7143 114.339 19.5868 115.257 19.1809C114.492 18.5405 113.727 18.3691 113.015 18.4412C112.349 18.5134 111.737 18.793 111.223 19.1358C111.503 18.8111 111.71 18.5224 111.89 18.1616C112.673 16.6553 111.692 14.8693 111.692 14.8693C111.214 16.0238 110.134 16.2493 109.855 17.0341C109.621 17.6926 109.576 18.333 109.603 18.8922C109.062 18.6036 108.36 18.4773 107.595 18.5134C106.911 17.3408 105.812 16.7725 104.948 17.2055C104.155 17.5933 103.795 18.7299 103.975 19.9566C102.39 21.1834 101.562 22.8972 102.084 24.1961C102.471 25.1883 103.534 25.6844 104.858 25.6574C103.435 30.4741 96.7538 36.0395 99.0679 41.5599C101.544 47.4771 111.422 45.8985 115.654 43.7878C122.659 40.288 126.431 32.6299 124.09 26.6586Z" fill="#461F16"/>
<path d="M8.29714 53.3672C17.4994 62.9196 29.1327 66.0225 42.0807 65.3369C57.5948 64.5793 72.6137 59.8166 87.0564 54.3053C107.721 45.8354 132.896 44.2749 150.788 59.6633L150.536 60.0151C145.061 56.9572 139.316 54.63 133.356 53.3582C127.413 52.0773 121.299 51.7707 115.239 52.2307C106.136 52.9523 97.069 55.045 88.362 57.9224C85.3996 58.8966 82.3922 59.9339 79.3668 60.8269C67.2833 64.48 54.8305 67.3665 42.1347 67.5108C28.8896 67.61 16.8781 63.9569 8.009 53.6739C7.991 53.6919 8.29714 53.3853 8.29714 53.3853V53.3672Z" fill="#461F16"/>
<path d="M39.0103 69.6937C39.2714 69.7117 39.5955 70.0004 39.6496 70.4604C39.7936 71.7773 39.3974 75.2321 39.3614 75.7913C39.3254 76.3866 39.0373 76.6212 38.7131 76.6121C37.8938 76.5941 38.2179 75.0156 38.2449 74.4383C37.8487 74.5014 37.5246 74.5014 37.1464 74.5826C37.1014 74.8983 37.1104 75.4846 37.1014 75.8274C37.1014 76.2062 36.8673 76.4047 36.5882 76.3957C35.6697 76.3596 35.6967 74.3661 35.7778 73.6445C36.0749 71.0828 37.2815 69.5584 39.0103 69.6757V69.6937ZM38.2269 73.2927C38.3079 73.2296 38.425 72.4809 38.461 72.2103C38.7131 70.5145 37.6056 71.7322 37.3625 72.499C37.2725 72.7876 37.2274 73.1574 37.1914 73.4371C37.5786 73.392 38.1189 73.3739 38.2269 73.2927Z" fill="#461F16"/>
<path d="M44.7639 76.3866C44.7549 76.7114 44.5208 76.9008 44.2957 76.9639C42.675 77.4059 43.0261 73.7528 43.0711 72.8237C43.1072 72.1652 43.2602 70.1988 44.0706 70.1988C44.5478 70.1988 44.5478 70.5777 44.5208 71.0467C45.016 70.6228 45.5383 70.2259 46.1145 70.2169C46.9609 70.2078 47.15 71.1099 47.213 71.9127C47.3301 73.3378 45.7994 74.5736 44.4218 74.736C44.3857 75.5929 44.7639 75.9898 44.7459 76.3957L44.7639 76.3866ZM45.8534 72.5982C46.2676 71.4887 45.2681 71.191 44.6739 72.3095C44.5658 72.517 44.4037 73.3198 44.4488 73.401C44.5658 73.4551 45.6283 73.2206 45.8534 72.5892V72.5982Z" fill="#461F16"/>
<path d="M48.5637 75.9266C48.2035 75.9537 47.9514 75.7462 47.7713 75.4486C47.177 74.4563 47.5732 73.0853 47.9784 72.2735C48.4106 71.3985 49.5271 71.3173 50.0043 72.1562C50.1844 72.4809 50.2564 72.8959 50.2384 73.2657C50.1844 74.0955 49.5271 75.8635 48.5727 75.9266H48.5637ZM48.5366 74.2128C48.6267 75.4486 49.4281 74.2218 49.4191 73.4371C49.401 72.039 48.4556 73.1214 48.5366 74.2128Z" fill="#461F16"/>
<path d="M52.2193 69.8019C52.6876 69.7658 52.7236 70.0094 52.6876 70.4063C52.6425 70.8843 52.6515 71.4707 52.6335 71.9397C52.9577 71.9397 53.5339 71.8224 53.543 72.2915C53.552 72.7335 52.9307 72.8056 52.6515 72.8507C52.5885 73.2386 52.4715 74.1947 52.7776 74.3571C52.8856 74.4293 53.0117 74.4653 53.0207 74.754C53.0207 75.1779 52.7236 75.6109 52.3814 75.647C51.553 75.7372 51.1749 74.5826 51.2919 73.1664C50.9948 73.1574 50.6436 73.1484 50.6256 72.7154C50.6076 72.3185 50.9768 72.2013 51.2469 72.093C51.3279 71.5518 51.535 69.8651 52.2193 69.8019Z" fill="#461F16"/>
<path d="M54.9026 69.3329C55.2087 69.2968 55.3528 69.5043 55.3348 69.8019C55.2627 71.0287 55.0646 72.2464 54.9746 73.3288C54.9026 74.2038 55.2177 74.1497 55.2267 74.4744C55.2357 74.8081 55.0737 75.1509 54.8305 75.178C54.0832 75.2772 53.8401 74.3391 53.8491 73.7257C53.8491 72.8508 53.8401 71.2813 54.2723 70.1808C54.4524 69.7117 54.6685 69.369 54.9206 69.3419L54.9026 69.3329Z" fill="#461F16"/>
<path d="M56.3522 71.3173C56.8115 71.2452 56.8745 71.5969 56.8745 72.0028C56.8745 72.6974 56.6584 73.3919 56.6854 74.1857C56.6944 74.4924 56.5683 74.8442 56.2712 74.8893C55.7039 74.9705 55.6319 73.7437 55.6679 73.3198C55.7039 72.8507 55.6859 71.4165 56.3432 71.3173H56.3522ZM57.1266 69.838C57.1266 70.1357 56.8295 70.6679 56.5233 70.722C55.812 70.8302 55.9741 69.4862 56.6224 69.378C56.9015 69.3329 57.1266 69.5403 57.1266 69.838Z" fill="#461F16"/>
<path d="M61.5836 74.0504C61.1785 74.2128 60.7913 74.1316 60.5212 73.9061C59.6207 73.1484 59.6928 71.4887 60.0529 70.4243C60.4491 69.2698 61.7007 68.6925 62.367 69.5223C62.6281 69.838 62.7722 70.3161 62.8262 70.722C62.9433 71.6421 62.6731 73.6175 61.5836 74.0595V74.0504ZM61.0884 72.0299C61.2775 73.6806 62.0519 72.075 61.9348 71.1911C61.7097 69.4592 60.9534 70.8844 61.0884 72.0299Z" fill="#461F16"/>
<path d="M65.0953 70.6408C65.5185 70.6047 66.761 70.2439 66.716 70.8844C66.671 71.4977 65.4104 71.6691 65.0322 71.7503C65.0142 72.0209 65.0142 72.1382 65.0502 72.4088C65.0953 72.6974 65.2393 72.968 65.2844 73.2476C65.3384 73.5453 65.0953 73.8249 64.8161 73.8881C64.1768 74.0414 63.8077 72.3276 63.6996 72.2193C63.6186 72.1382 62.9973 72.1833 63.0243 71.7503C63.0513 71.3805 63.4565 71.182 63.7536 71.0557C63.8707 70.0996 63.9337 67.6281 65.2123 67.3214C66.0317 67.123 66.8511 68.052 66.8601 68.927C66.8601 69.2517 66.626 69.5945 66.3468 69.6576C65.8786 69.7659 65.7436 69.0352 65.3114 68.945C65.1853 69.5313 65.1673 70.0906 65.0953 70.6318V70.6408Z" fill="#461F16"/>
<path d="M71.5152 69.847C71.5152 70.0184 71.5062 70.0996 71.4972 70.271C71.4882 70.731 71.7673 70.9385 71.8033 71.2361C71.8394 71.5068 71.6503 71.7774 71.3711 71.8495C70.5788 72.057 70.2997 70.8663 70.2186 70.3161C69.8224 70.3702 69.4893 70.3341 69.5163 69.8651C69.5343 69.4772 69.8765 69.2247 70.2186 69.0713C70.2366 68.4219 70.3537 65.4633 71.2721 65.2107C71.6863 65.1025 71.8123 65.5084 71.7943 65.9774C71.7493 66.9335 71.6773 67.8446 71.6143 68.6474C72.1275 68.4489 72.6317 68.2866 73.136 68.1152C73.172 67.3665 73.3611 64.5973 74.2975 64.3357C74.6487 64.2365 74.8558 64.5342 74.8377 64.9942C74.7657 66.7622 74.4686 68.1062 74.4596 69.4862C74.4596 70.2169 74.8557 70.731 74.8738 70.9475C74.9008 71.2361 74.6757 71.5158 74.4145 71.5879C73.4601 71.8585 73.136 69.7749 73.1089 69.1074C72.4787 69.396 72.1545 69.5494 71.5062 69.838L71.5152 69.847Z" fill="#461F16"/>
<path d="M76.2334 70.0816C75.9002 70.1808 75.6391 70.0635 75.441 69.847C74.7747 69.1344 75.0809 67.6191 75.5131 66.6178C75.9723 65.5354 77.0077 65.2107 77.4219 66.0676C77.575 66.4013 77.62 66.8523 77.629 67.2222C77.647 68.043 77.1428 69.811 76.2424 70.0816H76.2334ZM76.1073 68.2324C76.1073 69.6937 76.8637 68.3587 76.8547 67.5649C76.8367 66.0135 76.0983 67.2132 76.1073 68.2324Z" fill="#461F16"/>
<path d="M79.3848 64.3538C79.781 64.2275 80.0601 64.6064 80.2312 64.9852C80.4923 64.462 80.8345 63.7404 81.3117 63.5781C82.5093 63.1631 82.6263 66.0676 82.4462 67.1771C82.3652 67.6552 82.1491 67.9799 81.861 68.0701C81.5818 68.1693 81.3387 67.9348 81.3387 67.5289C81.3387 67.0689 81.3117 66.3112 81.2757 65.8241C81.1947 64.8589 80.8525 64.9942 80.6904 66.0045C80.6184 66.4555 80.6904 67.2402 80.6994 67.5199C80.7084 67.8897 80.5644 68.2505 80.2312 68.3678C80.0151 68.4399 79.799 68.3136 79.745 67.9979C79.691 67.6461 79.637 67.0057 79.5829 66.6178C79.4389 65.5895 79.1507 65.8962 79.1327 66.7622C79.1327 67.2402 79.2138 67.8626 79.2318 68.3858C79.2408 68.7195 79.0787 69.1254 78.7906 69.2156C78.5114 69.3058 78.3313 69.1705 78.2503 68.8458C78.0252 67.9077 77.9892 66.9696 77.9802 65.8872C77.9802 65.5084 78.1153 65.1205 78.4394 65.0213C78.5384 64.9852 78.6645 64.9762 78.7726 65.0032C78.9166 64.6966 79.1327 64.444 79.3848 64.3628V64.3538Z" fill="#461F16"/>
<path d="M85.4986 65.6617C85.7688 65.5625 85.9939 65.6437 86.0119 65.9594C86.0389 66.4825 84.9404 67.0869 84.5352 67.2312C82.2752 68.025 82.5453 63.3165 84.5532 62.5949C85.2105 62.3603 85.8318 62.5949 85.8768 63.3255C85.8948 63.5961 85.9218 64.5252 84.166 65.5264C84.202 65.9774 84.3641 66.1939 84.6883 66.0766C84.9674 65.9774 85.2105 65.7609 85.4986 65.6617ZM84.166 64.8319C84.6973 64.3989 85.3096 63.2623 84.6973 63.4878C84.3731 63.6051 84.184 64.2816 84.166 64.8319Z" fill="#461F16"/>
<path d="M87.9118 61.3952C88.344 61.2599 88.6861 61.6207 88.8842 61.9725C89.1453 61.4763 89.4875 60.7998 90.0007 60.6555C91.3063 60.2857 91.3423 62.8203 91.2343 64.1102C91.1803 64.6785 90.9552 64.9671 90.658 65.0573C90.3609 65.1475 90.0998 64.9311 90.0728 64.444C90.0367 63.9028 90.1178 63.2353 90.0908 62.7482C90.0367 61.765 89.6586 61.9003 89.4515 62.9286C89.3614 63.3796 89.3974 64.1463 89.3974 64.4259C89.3974 64.7958 89.2714 65.2287 88.9202 65.346C88.6861 65.4272 88.425 65.2558 88.389 64.9311C88.344 64.5703 88.3079 63.9479 88.2539 63.56C88.1189 62.5407 87.7947 62.8564 87.7677 63.7133C87.7497 64.1914 87.8127 64.7777 87.8487 65.355C87.8757 65.7248 87.6957 66.1398 87.3895 66.239C87.0924 66.3382 86.8943 66.2209 86.8133 65.8601C86.5611 64.8589 86.5341 63.9569 86.4621 62.9105C86.4351 62.5497 86.5701 62.1619 86.9213 62.0446C87.0294 62.0085 87.1644 61.9905 87.2905 62.0085C87.4255 61.7019 87.6416 61.4583 87.9208 61.3681L87.9118 61.3952Z" fill="#461F16"/>
<path d="M92.9091 64.2365C92.3328 64.4079 91.7385 64.1012 91.7655 63.4337C91.8015 62.3694 93.3773 61.7921 93.6294 61.5034C93.6834 61.4403 93.6654 61.1426 93.6564 60.9622C93.6474 60.7818 93.6384 60.6104 93.4493 60.6645C93.1882 60.7367 92.9181 61.2058 92.5669 61.305C92.3148 61.3771 92.0807 61.2238 92.0627 60.9802C92.0267 60.4661 92.9901 59.8798 93.4223 59.7806C94.4128 59.537 94.6919 60.1053 94.7459 60.9261C94.7909 61.6838 94.4938 62.3784 94.5478 63.4157C94.5658 63.8036 94.4668 64.1553 94.1516 64.2455C93.9085 64.3177 93.7374 64.0832 93.6294 63.8306C93.3953 64.02 93.1522 64.1824 92.9001 64.2546L92.9091 64.2365ZM93.0261 63.1451C93.2062 63.091 93.5484 62.9376 93.5574 62.7211C93.5664 62.4866 93.2602 62.5949 93.1162 62.676C92.738 62.8925 92.675 63.2533 93.0261 63.1451Z" fill="#461F16"/>
<path d="M96.3486 63.6051C94.971 64.0651 94.881 61.6207 95.3852 60.6104C95.5383 60.3128 95.7814 60.0782 96.1325 59.979C96.6008 59.8437 96.9879 59.8978 97.2671 60.1504C97.2761 59.8257 97.204 58.8786 97.4291 58.0758C97.6813 57.2008 98.6357 57.3181 98.5907 58.2201C98.5186 59.6092 98.0594 60.854 98.3296 62.4145C98.3836 62.7121 98.2485 62.9917 98.0054 63.0729C97.7713 63.1451 97.4201 62.7121 97.2941 62.5137C97.0059 63.0098 96.8259 63.4337 96.3396 63.5961L96.3486 63.6051ZM96.8709 61.0163C96.6458 60.5653 96.4117 61.0344 96.3126 61.3862C96.2496 61.6117 96.1325 62.3513 96.4927 62.2341C96.7718 62.1438 97.105 61.4854 96.8709 61.0163Z" fill="#461F16"/>
<path d="M101.256 61.1606C101.517 61.1155 101.715 61.1967 101.715 61.5936C101.706 62.2521 100.626 62.5858 100.247 62.658C98.1044 63.0729 98.5907 58.7883 100.653 58.4546C101.319 58.3464 101.913 58.617 101.868 59.1942C101.85 59.4107 101.823 60.2135 100.049 60.8359C100.013 61.2328 100.13 61.4583 100.446 61.4042C100.716 61.3591 100.968 61.1967 101.256 61.1516V61.1606ZM100.139 60.2135C100.671 59.8978 101.337 59.068 100.725 59.1672C100.401 59.2213 100.193 59.6904 100.139 60.2135Z" fill="#461F16"/>
<path d="M105.119 57.6248C104.741 57.715 104.11 57.9675 104.002 57.5526C103.822 56.849 104.137 56.6055 104.506 56.398C104.948 56.1545 107.955 55.0179 108.279 56.1545C108.558 57.1377 107.118 56.9934 107.019 57.1377C106.938 57.2549 107.199 59.6272 107.19 59.979C107.172 60.4842 107.271 61.2509 107.19 61.8011C107.154 62.0897 106.956 62.3423 106.667 62.4145C105.803 62.6129 105.812 61.5575 105.812 61.4042C105.902 58.8515 105.578 58.0036 105.533 57.4895C105.38 57.5436 105.254 57.5977 105.11 57.6248H105.119Z" fill="#461F16"/>
<path d="M109.882 57.5075C110.188 57.4353 110.458 57.5616 110.485 57.9224C110.53 58.5809 109.252 58.8876 109.288 59.7535C109.306 60.2045 109.423 60.5563 109.405 61.1697C109.405 61.5575 109.162 61.8191 108.792 61.9003C107.919 62.0897 108.126 60.2045 108.018 59.519C107.874 58.5448 107.712 57.8232 108.378 57.733C108.81 57.6698 108.909 57.9224 108.954 58.0216C109.261 57.8142 109.549 57.5796 109.882 57.4985V57.5075Z" fill="#461F16"/>
<path d="M111.62 61.3771C111.007 61.4944 110.467 61.2328 110.494 60.6195C110.557 59.2484 112.133 59.0319 112.34 58.7884C112.394 58.7252 112.439 58.5719 112.421 58.3644C112.403 58.157 112.385 57.9675 112.196 58.0036C111.935 58.0577 111.656 58.5538 111.305 58.626C111.043 58.6711 110.809 58.4817 110.8 58.2111C110.773 57.6518 111.692 57.0565 112.115 56.9663C113.105 56.7588 113.448 57.4353 113.583 58.4276C113.709 59.3476 113.457 60.0602 113.457 60.8089C113.457 61.0885 113.294 61.2689 112.943 61.332C112.673 61.3862 112.538 61.2599 112.448 61.0885C112.187 61.2148 111.908 61.323 111.638 61.3681L111.62 61.3771ZM111.863 60.5112C112.088 60.4661 112.529 60.3037 112.529 59.988C112.529 59.6453 112.142 59.7535 111.962 59.8437C111.485 60.0873 111.413 60.6014 111.863 60.5112Z" fill="#461F16"/>
<path d="M115.275 61.1967C113.691 61.4312 113.808 59.528 114.321 58.3915C114.474 58.0577 114.726 57.8142 115.095 57.742C115.581 57.6518 115.996 57.76 116.338 58.1208C116.32 57.7149 116.149 56.4702 116.338 55.7576C116.536 54.9818 117.598 55.1352 117.58 55.9741C117.553 57.2639 117.256 59.4288 117.58 60.5382C117.643 60.7547 117.481 60.8991 117.193 60.9351C116.923 60.9712 116.554 60.7096 116.41 60.5473C116.086 60.9081 115.834 61.1155 115.275 61.1967ZM116.068 58.9327C115.726 58.4907 115.257 58.8966 115.194 59.3295C115.158 59.5731 115.023 60.3578 115.491 60.2316C115.861 60.1233 116.428 59.3927 116.068 58.9327Z" fill="#461F16"/>
<path d="M118.931 56.9302C119.615 56.7769 119.588 57.5796 119.606 58.0667C119.642 58.9146 119.669 59.8347 119.48 60.4481C119.39 60.7457 119.174 60.8449 118.841 60.854C118.202 60.881 118.211 59.5911 118.256 59.2213C118.31 58.8064 118.22 57.0926 118.922 56.9302H118.931ZM119.705 55.938C119.714 56.2717 119.453 56.5784 119.12 56.5965C118.346 56.6325 118.382 55.3607 119.102 55.3427C119.408 55.3427 119.696 55.5952 119.705 55.929V55.938Z" fill="#461F16"/>
<path d="M121.659 55.2074C122.173 55.2164 122.263 55.4599 122.272 55.8658C122.272 56.3439 122.245 56.38 122.263 56.8761C122.614 56.9122 123.289 56.84 123.361 57.3722C123.433 57.8683 122.551 57.8773 122.245 57.9044C122.2 58.2562 122.155 60.0782 122.533 60.0331C122.65 60.1143 122.812 60.1594 122.839 60.412C122.884 60.7818 122.497 60.9351 122.127 60.9351C121.209 60.9351 120.822 60.4751 121.02 58.0397C120.696 58.0126 120.255 58.0938 120.183 57.5887C120.12 57.1196 120.705 57.0655 121.002 56.9573C121.065 56.38 120.921 55.1893 121.668 55.2074H121.659Z" fill="#461F16"/>
<path d="M124.415 57.0024C124.901 57.0565 124.964 57.4173 125 57.8773C125.063 58.6621 124.838 59.6543 124.721 60.412C124.676 60.7187 124.433 60.9171 124.117 60.881C123.505 60.8089 123.568 59.2755 123.631 58.8695C123.703 58.4185 123.703 56.9122 124.406 56.9934L124.415 57.0024ZM125.216 56.1725C125.189 56.4521 124.847 56.8039 124.523 56.7588C123.766 56.6596 124 55.4689 124.694 55.5862C124.991 55.6403 125.243 55.8929 125.216 56.1725Z" fill="#461F16"/>
<path d="M126.783 61.0524C126.413 61.0253 126.152 60.9171 125.945 60.7096C125.243 60.0331 125.594 58.2832 125.99 57.5616C126.422 56.7769 127.602 56.9122 128.088 57.7871C128.277 58.1209 128.367 58.5628 128.358 58.9417C128.358 59.8076 127.773 61.1246 126.774 61.0524H126.783ZM126.702 59.3566C126.675 60.9261 127.521 59.7986 127.53 58.9597C127.557 57.3181 126.72 58.2652 126.702 59.3566Z" fill="#461F16"/>
<path d="M129.628 60.9261C129.565 61.1697 129.259 61.3861 128.926 61.1877C128.34 60.8269 128.8 59.0138 128.944 58.5087C129.07 58.0577 129.124 57.2098 129.772 57.3361C130.078 57.3992 130.069 57.6879 130.132 57.9224C130.465 57.8593 131.132 57.9044 131.438 58.1479C132.32 58.8425 131.591 61.4944 130.907 61.5575C130.735 61.5756 130.582 61.4673 130.492 61.341C130.267 61.0163 130.537 60.3218 130.627 60.0782C131.24 58.4275 130.141 58.7883 129.97 59.077C129.718 59.519 129.691 60.6826 129.628 60.9171V60.9261Z" fill="#461F16"/>
<path d="M147.789 5.01026H145.925V4H150.761V5.01026H148.897V9.89015H147.789V5.01026Z" fill="#461F16"/>
<path d="M156.892 5.62363L154.975 8.18534H154.759L152.886 5.61461V9.89917H151.778V4H153.057L154.894 6.53466L156.73 4H158V9.89015H156.892V5.62363Z" fill="#461F16"/>
</g>
<defs>
<clipPath id="clip0_1_9">
<rect width="150" height="73" fill="#461F16" transform="translate(8 4)"/>
</clipPath>
</defs>
</svg>
